<svg xmlns="http://www.w3.org/2000/svg" viewBox="-40 -30 720 460" width="720" height="460">
<!-- Gegenereerd door scripts/generate-function-cartoons.mjs (functie 1); niet met de hand bewerken. -->
<style> svg { stroke-linecap: round; stroke-linejoin: round; } rect, circle, path, ellipse, polygon { stroke: #1f2a22; stroke-width: 3; } .ns, .hole { stroke: none !important; } .hole-dark { fill: #6f7a73; stroke: none; } .grass { fill: #7cb35b; stroke: none; } .ground-line { stroke: #4f8a3a; stroke-width: 4; } .soil { fill: #9b6b43; stroke: none; } .soil-line { stroke: #6e4a2c; stroke-width: 4; } .furrow { stroke: #7f5433; stroke-width: 3; } .floor { fill: #cfc6b4; stroke: none; } .floor-line { stroke: #a39a88; stroke-width: 4; } .plank { stroke: #b99c6c; stroke-width: 2.5; } .plank-rail { stroke: #a8865a; stroke-width: 10; } .sprout path { fill: #5aa447; stroke: #2f6b2a; stroke-width: 2; } .blade { fill: #5aa447; stroke: #2f6b2a; stroke-width: 2; } .weed { fill: #3f7d34; stroke: #1f4a1c; stroke-width: 2; } .crop path { fill: #6bb04f; stroke: #2f6b2a; stroke-width: 2.5; } .crop.small path { stroke-width: 1.5; } .cloud ellipse { fill: #ffffff; stroke: none; } .rain-cloud ellipse { fill: #c7d0cb; } .sun circle { fill: #f6c945; } .sun path { stroke: #e0a02c; stroke-width: 4; } .star { fill: #fff6c2; stroke: none; animation: twinkle 2.4s ease-in-out infinite; } .tire { fill: #33383a; } .tread { fill: none; stroke: #5d6663; stroke-dasharray: 7 6; stroke-width: 4; } .rim { fill: #dfe5df; } .hub { fill: #e0a02c; } .hub-inner { fill: #c07f14; } .bolt { fill: #fffdf5; stroke-width: 2; } .metal { fill: #b9c3bc; } .dark { fill: #2c3e2c; } .nut { fill: #7b857f; } .motor { fill: #2f9a9e; } .far { opacity: 0.55; } .beam-outline { fill: none; stroke: #1f2a22; stroke-width: 26; stroke-linecap: butt; } .beam { fill: none; stroke: #4a544e; stroke-width: 20; stroke-linecap: butt; } .beam-shine { fill: none; stroke: #6d7972; stroke-width: 3; stroke-linecap: butt; } .hole { fill: #c7cfc9; } .beam-end { fill: #4a544e; } .beam-end-hole { fill: #1f2a22; stroke: none; } .battery { fill: #f08a2c; } .led { fill: #6fcf6f; stroke-width: 2; } .handle { fill: none; stroke-width: 4; } .plus { fill: #4f8a3a; } .generator { fill: #f6c945; } .grille { stroke-width: 2.5; } .puff { fill: #e6eae7; stroke: #9aa39e; stroke-width: 2; } .spark { fill: none; stroke: #e0a02c; stroke-width: 3.5; animation: pulse 0.9s ease-in-out infinite; } .solar { fill: #2d4a7a; } .cells { fill: none; stroke: #8fb3e6; stroke-width: 1.8; } .box { fill: #386938; } .eye { fill: #ffffff; } .pupil { fill: #1f2a22; stroke: none; animation: look 5s ease-in-out infinite; } .mouth { fill: none; stroke-width: 3; } .blink { fill: #6fcf6f; animation: blink 1.6s steps(2, jump-none) infinite; } .dome { fill: #f4f6f4; } .seat { fill: #5b6360; } .skin { fill: #f2c7a0; } .knob { fill: #c0492b; } .lens { fill: #7fc4d6; } .cone { fill: rgba(246, 201, 69, 0.28); stroke: none; } .mist { fill: rgba(127, 196, 214, 0.75); stroke: none; animation: pulse 1.2s ease-in-out infinite; } .water { fill: none; stroke: #7fc4d6; stroke-width: 4; stroke-dasharray: 3 9; animation: flow 0.8s linear infinite; } .signal { fill: none; stroke: #2f9a9e; stroke-width: 3; animation: pulse 1.4s ease-in-out infinite; } .signal.s1 { animation-delay: 0.3s; } .signal.s2 { animation-delay: 0.6s; } .link { fill: none; stroke: #2f9a9e; stroke-width: 3; stroke-dasharray: 2 8; animation: flow 1s linear infinite; } .ray { fill: none; stroke-width: 3.5; } .ray.red { stroke: #c0492b; } .ray.nir { stroke: #8e44ad; } .ring { fill: none; stroke: #c0492b; stroke-dasharray: 10 8; stroke-width: 2.5; animation: flow 1.2s linear infinite; } .beacon { fill: #f08a2c; animation: beacon 0.8s steps(2, jump-none) infinite; } .beam-light { fill: none; stroke: #f6c945; stroke-width: 3; animation: pulse 0.8s ease-in-out infinite; } .goose { fill: none; stroke: #dfe5df; stroke-width: 3; } .needle { stroke: #c0492b; stroke-width: 3.5; } .prop { fill: rgba(223, 229, 223, 0.7); stroke: #9aa39e; stroke-width: 1.5; } .blade-line { fill: none; stroke: #7b857f; stroke-width: 4; stroke-dasharray: 14 6; animation: flow 0.3s linear infinite; } .chain { fill: none; stroke: #2c3e2c; stroke-width: 4; stroke-dasharray: 5 3; animation: flow 0.6s linear infinite; } .sprocket { fill: #e0a02c; stroke-dasharray: 3 2; } .card { fill: #fffdf5; filter: drop-shadow(0 3px 0 #1f2a22); } /* Beweging: draaiende rotors, vallende korrels, wegvliegende brokjes. */ .spin { transform-box: fill-box; transform-origin: center; animation: spin 1.4s linear infinite; } .spin.slow { animation-duration: 3s; } .spin.fast { animation-duration: 0.5s; } .spin.rev { animation-direction: reverse; } .fall { animation: fall 1.3s linear infinite; } .fall-short { animation: fall-short 0.9s linear infinite; } .fly-back { animation: fly-back 1.3s ease-out infinite; } .fly-up { animation: fly-up 1.3s ease-out infinite; } .drip { animation: drip 1.1s ease-in infinite; } .rain { animation: drip 1s linear infinite; } .bob { animation: bob 1.1s ease-in-out infinite; } .pulse { animation: pulse 0.7s ease-in-out infinite; } .saw { animation: saw 0.25s linear infinite alternate; } .sway { animation: sway 1.6s ease-in-out infinite alternate; } .hover { animation: hover 2.2s ease-in-out infinite alternate; } .plant-arm { animation: plant 2.4s ease-in-out infinite; } .flee { animation: flee 3s ease-in infinite; } .charge { animation: pulse 1.5s ease-in-out infinite; } .charge.c1 { animation-delay: 0.3s; } .charge.c2 { animation-delay: 0.6s; } @keyframes spin { to { transform: rotate(360deg); } } @keyframes fall { from { transform: translate(0, -18px); opacity: 0; } 25% { opacity: 1; } to { transform: translate(0, 24px); opacity: 0; } } @keyframes fall-short { from { transform: translate(0, -8px); opacity: 0; } 30% { opacity: 1; } to { transform: translate(0, 10px); opacity: 0; } } @keyframes fly-back { from { transform: translate(14px, 10px); opacity: 0; } 30% { opacity: 1; } to { transform: translate(-22px, -14px); opacity: 0; } } @keyframes fly-up { from { transform: translate(0, 8px); opacity: 0; } 30% { opacity: 1; } to { transform: translate(10px, -20px); opacity: 0; } } @keyframes drip { from { transform: translate(0, -14px); opacity: 0; } 20% { opacity: 1; } to { transform: translate(0, 16px); opacity: 0; } } @keyframes bob { 0%, 100% { transform: translate(0, 0); } 50% { transform: translate(0, -4px); } } @keyframes pulse { 0%, 100% { opacity: 0.25; } 50% { opacity: 1; } } @keyframes flow { to { stroke-dashoffset: -24; } } @keyframes saw { from { transform: translateX(-3px); } to { transform: translateX(3px); } } @keyframes sway { from { transform: translateX(-10px); } to { transform: translateX(10px); } } @keyframes hover { from { transform: translateY(-4px); } to { transform: translateY(4px); } } @keyframes plant { 0%, 100% { transform: translateY(-14px); } 50% { transform: translateY(0); } } @keyframes flee { from { transform: translateX(0); } 70% { opacity: 1; } to { transform: translateX(60px); opacity: 0; } } @keyframes blink { 50% { fill: #c0492b; } } @keyframes beacon { 50% { fill: #f6c945; } } @keyframes twinkle { 0%, 100% { opacity: 0.4; } 50% { opacity: 1; } } @keyframes look { 0%, 70%, 100% { transform: translate(0, 0); } 78%, 92% { transform: translate(-5px, -1px); } } @media (prefers-reduced-motion: reduce) { * { animation: none !important; } } </style>
<defs>
<linearGradient id="sky" x1="0" y1="0" x2="0" y2="1">
<stop offset="0" stop-color="#bfe3f2"/><stop offset="1" stop-color="#eef8f2"/>
</linearGradient>
<linearGradient id="night" x1="0" y1="0" x2="0" y2="1">
<stop offset="0" stop-color="#142440"/><stop offset="1" stop-color="#34507a"/>
</linearGradient>
</defs>
<rect x="-40" y="-30" width="720" height="460" fill="#d8bf93" class="ns"/>
<path d="M-40 -30 V350" class="plank"/><path d="M-6 -30 V350" class="plank"/><path d="M28 -30 V350" class="plank"/><path d="M62 -30 V350" class="plank"/><path d="M96 -30 V350" class="plank"/><path d="M130 -30 V350" class="plank"/><path d="M164 -30 V350" class="plank"/><path d="M198 -30 V350" class="plank"/><path d="M232 -30 V350" class="plank"/><path d="M266 -30 V350" class="plank"/><path d="M300 -30 V350" class="plank"/><path d="M334 -30 V350" class="plank"/><path d="M368 -30 V350" class="plank"/><path d="M402 -30 V350" class="plank"/><path d="M436 -30 V350" class="plank"/><path d="M470 -30 V350" class="plank"/><path d="M504 -30 V350" class="plank"/><path d="M538 -30 V350" class="plank"/><path d="M572 -30 V350" class="plank"/><path d="M606 -30 V350" class="plank"/><path d="M640 -30 V350" class="plank"/><path d="M674 -30 V350" class="plank"/>
<path d="M-40 70 H680" class="plank-rail"/>
<rect x="-40" y="350" width="720" height="80" class="floor"/>
<path d="M-40 350 H680" class="floor-line"/>
<rect x="515" y="200" width="10" height="150" class="metal"/><rect x="543" y="200" width="10" height="150" class="metal"/><rect x="627" y="200" width="10" height="150" class="metal"/><rect x="655" y="200" width="10" height="150" class="metal"/>
<rect x="490" y="208" width="200" height="10" rx="3" class="dark"/>
<g class="cow">
<ellipse cx="560" cy="236" rx="15" ry="7" fill="#ffffff" transform="rotate(-20 560 236)"/>
<ellipse cx="620" cy="236" rx="15" ry="7" fill="#ffffff" transform="rotate(20 620 236)"/>
<path d="M576 222 q-4 -12 -12 -14 M604 222 q4 -12 12 -14" style="fill:none;stroke:#e8dcc0;stroke-width:5"/>
<path d="M568 226 Q590 212 612 226 L616 270 Q590 296 564 270 Z" fill="#ffffff"/>
<path d="M570 230 Q580 226 588 232 Q584 246 572 244 Z" fill="#1f2a22" style="stroke-width:1"/>
<ellipse cx="590" cy="276" rx="21" ry="13" fill="#f2b8b0"/>
<circle cx="583" cy="276" r="2.5" fill="#1f2a22"/>
<circle cx="597" cy="276" r="2.5" fill="#1f2a22"/>
<circle cx="579" cy="250" r="3.5" fill="#1f2a22"/>
<circle cx="601" cy="250" r="3.5" fill="#1f2a22"/>
</g>
<path d="M548 350 C 556 316, 582 306, 596 320 C 610 302, 636 314, 640 350 Z" fill="#d9b44a"/>
<path d="M551 336 l18 4" style="stroke:#a8872a;stroke-width:2.5"/><path d="M569 322 l18 -5" style="stroke:#a8872a;stroke-width:2.5"/><path d="M593 328 l18 6" style="stroke:#a8872a;stroke-width:2.5"/><path d="M611 338 l18 -3" style="stroke:#a8872a;stroke-width:2.5"/><path d="M581 342 l18 2" style="stroke:#a8872a;stroke-width:2.5"/>
<g transform="translate(-30 0)">
<g transform="translate(14 -12)" class="far">
<circle cx="475" cy="308" r="42" class="tire"/>
<circle cx="475" cy="308" r="36" class="tread"/>
<circle cx="475" cy="308" r="26" class="hub"/>
<circle cx="475" cy="308" r="14.3" class="hub-inner"/>
<path transform="translate(463 284)" d="M16 0 L4 22 H13 L8 40 L22 15 H13 Z" class="bolt"/>
<rect x="466" y="212" width="18" height="104" rx="4" class="metal"/>
<circle cx="475" cy="224" r="2.6" class="hole-dark"/><circle cx="475" cy="240" r="2.6" class="hole-dark"/><circle cx="475" cy="256" r="2.6" class="hole-dark"/><circle cx="475" cy="272" r="2.6" class="hole-dark"/><circle cx="475" cy="288" r="2.6" class="hole-dark"/>
<circle cx="475" cy="308" r="5" class="nut"/>
<rect x="453" y="198" width="44" height="16" rx="5" class="dark"/>
<rect x="495" y="194" width="24" height="22" rx="5" class="motor"/>
<circle cx="165" cy="308" r="42" class="tire"/>
<circle cx="165" cy="308" r="36" class="tread"/>
<circle cx="165" cy="308" r="26" class="hub"/>
<circle cx="165" cy="308" r="14.3" class="hub-inner"/>
<path transform="translate(153 284)" d="M16 0 L4 22 H13 L8 40 L22 15 H13 Z" class="bolt"/>
<rect x="156" y="198" width="18" height="118" rx="4" class="metal"/>
<circle cx="165" cy="210" r="2.6" class="hole-dark"/><circle cx="165" cy="226" r="2.6" class="hole-dark"/><circle cx="165" cy="242" r="2.6" class="hole-dark"/><circle cx="165" cy="258" r="2.6" class="hole-dark"/><circle cx="165" cy="274" r="2.6" class="hole-dark"/><circle cx="165" cy="290" r="2.6" class="hole-dark"/>
<circle cx="165" cy="308" r="5" class="nut"/>
<path d="M100 190 L540 190" class="beam-outline"/>
<path d="M100 190 L540 190" class="beam"/>
<path d="M100 190 L540 190" class="beam-shine" transform="translate(0 -5)"/>
<circle cx="112" cy="191" r="3" class="hole"/><circle cx="136" cy="191" r="3" class="hole"/><circle cx="160" cy="191" r="3" class="hole"/><circle cx="184" cy="191" r="3" class="hole"/><circle cx="208" cy="191" r="3" class="hole"/><circle cx="232" cy="191" r="3" class="hole"/><circle cx="256" cy="191" r="3" class="hole"/><circle cx="280" cy="191" r="3" class="hole"/><circle cx="304" cy="191" r="3" class="hole"/><circle cx="328" cy="191" r="3" class="hole"/><circle cx="352" cy="191" r="3" class="hole"/><circle cx="376" cy="191" r="3" class="hole"/><circle cx="400" cy="191" r="3" class="hole"/><circle cx="424" cy="191" r="3" class="hole"/><circle cx="448" cy="191" r="3" class="hole"/><circle cx="472" cy="191" r="3" class="hole"/><circle cx="496" cy="191" r="3" class="hole"/><circle cx="520" cy="191" r="3" class="hole"/></g>
<circle cx="475" cy="308" r="42" class="tire"/>
<circle cx="475" cy="308" r="36" class="tread"/>
<circle cx="475" cy="308" r="26" class="hub"/>
<circle cx="475" cy="308" r="14.3" class="hub-inner"/>
<path transform="translate(463 284)" d="M16 0 L4 22 H13 L8 40 L22 15 H13 Z" class="bolt"/>
<rect x="466" y="212" width="18" height="104" rx="4" class="metal"/>
<circle cx="475" cy="224" r="2.6" class="hole-dark"/><circle cx="475" cy="240" r="2.6" class="hole-dark"/><circle cx="475" cy="256" r="2.6" class="hole-dark"/><circle cx="475" cy="272" r="2.6" class="hole-dark"/><circle cx="475" cy="288" r="2.6" class="hole-dark"/>
<circle cx="475" cy="308" r="5" class="nut"/>
<rect x="453" y="198" width="44" height="16" rx="5" class="dark"/>
<rect x="495" y="194" width="24" height="22" rx="5" class="motor"/>
<circle cx="165" cy="308" r="42" class="tire"/>
<circle cx="165" cy="308" r="36" class="tread"/>
<circle cx="165" cy="308" r="26" class="hub"/>
<circle cx="165" cy="308" r="14.3" class="hub-inner"/>
<path transform="translate(153 284)" d="M16 0 L4 22 H13 L8 40 L22 15 H13 Z" class="bolt"/>
<rect x="156" y="198" width="18" height="118" rx="4" class="metal"/>
<circle cx="165" cy="210" r="2.6" class="hole-dark"/><circle cx="165" cy="226" r="2.6" class="hole-dark"/><circle cx="165" cy="242" r="2.6" class="hole-dark"/><circle cx="165" cy="258" r="2.6" class="hole-dark"/><circle cx="165" cy="274" r="2.6" class="hole-dark"/><circle cx="165" cy="290" r="2.6" class="hole-dark"/>
<circle cx="165" cy="308" r="5" class="nut"/>
<path d="M100 190 L540 190" class="beam-outline"/>
<path d="M100 190 L540 190" class="beam"/>
<path d="M100 190 L540 190" class="beam-shine" transform="translate(0 -5)"/>
<circle cx="112" cy="191" r="3" class="hole"/><circle cx="136" cy="191" r="3" class="hole"/><circle cx="160" cy="191" r="3" class="hole"/><circle cx="184" cy="191" r="3" class="hole"/><circle cx="208" cy="191" r="3" class="hole"/><circle cx="232" cy="191" r="3" class="hole"/><circle cx="256" cy="191" r="3" class="hole"/><circle cx="280" cy="191" r="3" class="hole"/><circle cx="304" cy="191" r="3" class="hole"/><circle cx="328" cy="191" r="3" class="hole"/><circle cx="352" cy="191" r="3" class="hole"/><circle cx="376" cy="191" r="3" class="hole"/><circle cx="400" cy="191" r="3" class="hole"/><circle cx="424" cy="191" r="3" class="hole"/><circle cx="448" cy="191" r="3" class="hole"/><circle cx="472" cy="191" r="3" class="hole"/><circle cx="496" cy="191" r="3" class="hole"/><circle cx="520" cy="191" r="3" class="hole"/><rect x="100" y="157" width="22" height="22" rx="2" class="beam-end"/>
<rect x="106" y="163" width="10" height="10" class="beam-end-hole"/><rect x="518" y="157" width="22" height="22" rx="2" class="beam-end"/>
<rect x="524" y="163" width="10" height="10" class="beam-end-hole"/>
<rect x="144" y="116" width="14" height="9" rx="2" class="dark"/>
<rect x="194" y="116" width="14" height="9" rx="2" class="dark"/>
<rect x="130" y="123" width="92" height="57" rx="9" class="battery"/>
<rect x="140" y="162" width="13" height="10" rx="2" class="led"/><rect x="159" y="162" width="13" height="10" rx="2" class="led"/><rect x="178" y="162" width="13" height="10" rx="2" class="led"/><rect x="197" y="162" width="13" height="10" rx="2" class="led"/>
<path transform="translate(166 128)" d="M14 0 L3 16 H10 L6 30 L18 11 H11 Z" class="bolt"/>
<rect x="317" y="150" width="6" height="30" class="metal"/>
<rect x="303" y="147" width="34" height="7" rx="2" class="dark"/>
<path d="M304 148 Q 320 124 336 148 Z" class="dome"/>
<rect x="416" y="126" width="88" height="54" rx="10" class="box"/>
<circle cx="430" cy="140" r="4" class="blink"/>
<circle cx="466" cy="150" r="9" class="eye"/>
<circle cx="488" cy="150" r="9" class="eye"/>
<circle cx="469" cy="151" r="4.5" class="pupil"/>
<circle cx="491" cy="151" r="4.5" class="pupil"/>
<path d="M468 166 Q477 173 486 166" class="mouth"/>
<path d="M526 198 L566 270" style="fill:none;stroke-linecap:round;stroke-linejoin:round;stroke:#1f2a22;stroke-width:15"/><path d="M526 198 L566 270" style="fill:none;stroke-linecap:round;stroke-linejoin:round;stroke:#b9c3bc;stroke-width:9"/>
<path d="M510 206 L560 300" style="fill:none;stroke-linecap:round;stroke-linejoin:round;stroke:#1f2a22;stroke-width:13"/><path d="M510 206 L560 300" style="fill:none;stroke-linecap:round;stroke-linejoin:round;stroke:#7b857f;stroke-width:7"/>
<path d="M558 258 Q 584 298 562 340 H580 Q 600 298 576 254 Z" fill="#c0492b"/>
<rect x="560" y="334" width="22" height="16" rx="3" class="dark"/></g>
</svg>
